<?xml version="1.0" encoding="UTF-8" standalone="no"?>
<svg
   id="Layer_1"
   data-name="Layer 1"
   viewBox="0 0 780 550"
   version="1.1"
   xmlns="http://www.w3.org/2000/svg"
   xmlns:svg="http://www.w3.org/2000/svg">
  <defs
     id="defs1">
    <style
       id="style1">
      .cls-2 {
        fill: #DB515C;
      }
    </style>
  </defs>
  <path
     class="cls-2"
     d="m 326.14885,24.283162 c 0.36947,1.608769 -0.54923,2.03844 -1.45797,3.017691 -3.66487,3.94698 -10.23567,8.273669 -14.14021,12.290595 -19.11325,19.644967 -31.60577,43.836455 -43.38928,68.307732 -14.43979,0.81937 -28.81967,-1.41892 -42.93991,2.44812 -18.78371,5.14607 -31.14641,17.84635 -40.85282,33.95402 -18.3643,30.47668 -37.70724,65.79965 -54.20415,97.39547 -12.16299,23.29218 -16.31716,35.8026 -3.98443,60.88341 8.71781,17.73643 20.72101,35.21306 29.93811,52.81958 L 311.77895,80.220357 C 343.26489,29.009546 408.72329,10.273884 463.1671,36.37391 c 38.24647,18.335969 50.4494,54.628197 71.0306,88.63218 v 3.02768 c -15.83784,24.94091 -28.20054,52.16009 -43.2994,77.46072 -0.91872,1.53883 -2.01718,3.67719 -2.9359,5.00617 -0.59916,0.86934 0.15978,1.84859 -2.20691,1.29901 l -40.733,-76.47148 c -6.95027,-11.59113 -12.28281,-24.13154 -27.05214,-26.80949 -32.7342,-5.92546 -43.12965,29.75723 -55.72202,52.09014 C 293.94392,281.68619 225.06031,402.4238 156.47629,523.35126 L 153.65024,525 32.479809,308.54564 C 17.850282,274.69154 27.257118,253.73758 43.10494,224.44999 66.342422,181.50285 91.077807,132.73018 116.93163,91.811488 134.55696,63.922829 161.78885,42.5292 193.32472,32.556831 c 43.28943,-13.689524 88.38631,-6.355137 132.8441,-8.263676 z"
     id="path1"
     style="stroke-width:0.998919" />
  <path
     class="cls-2"
     d="m 641.50329,481.16089 c -13.53244,13.85578 -32.29038,26.80249 -50.5497,33.63548 -44.24721,16.53304 -94.74706,7.41239 -141.11836,9.76998 6.99059,-7.16265 15.12801,-13.01665 21.93911,-20.40906 17.09257,-18.54098 28.30145,-41.17775 40.79678,-62.86549 9.03492,-1.35861 18.34907,0.14984 27.39397,-0.4895 20.49312,-1.44851 39.16131,-12.21746 50.49985,-29.21003 18.36902,-37.00203 42.86105,-72.52557 61.07051,-109.36777 9.46373,-19.15035 11.40834,-33.85526 1.65541,-53.53506 -9.01498,-18.18135 -21.62997,-35.81325 -30.54523,-54.19439 l -2.57287,0.62935 -155.47849,276.90585 c -38.74249,55.51304 -114.13325,70.3678 -169.02093,28.00127 -25.44937,-19.63985 -37.50591,-49.35935 -52.84334,-76.6913 l 48.26605,-83.23459 c 14.14075,22.83657 25.66876,47.2615 39.17129,70.44771 7.46927,12.82684 14.02109,27.18211 30.65492,29.1401 28.34134,3.33657 34.34468,-14.58504 46.37131,-35.12396 47.20898,-80.56733 91.1969,-163.2325 137.25907,-244.48912 C 570.24107,114.57705 596.64778,69.38343 622.64563,24 l 2.32355,2.637294 c 35.53139,64.353963 72.44894,127.878776 107.55151,192.462506 5.92357,10.88883 12.33576,18.68083 15.82609,31.02816 11.39836,40.3486 -8.17732,66.03224 -26.43664,99.60779 -18.48868,34.0051 -38.71256,71.69643 -59.12591,104.34293 -6.36234,10.17955 -12.89422,18.50101 -21.27097,27.08221 z"
     id="path2"
     style="stroke-width:0.998103" />
</svg>
